Genre:Action
Language:English dubbed  http://www.imdb.com/title/tt1525835/
Source:HDTV 1080i


Format : MPEG-4
Format profile : Base Media
Codec ID : isom
File size : 2.41 GiB
Duration : 2h 10mn
Overall bit rate : 2 642 Kbps


Video
Format settings, CABAC : Yes
Format settings, ReFrames : 3 frames
Codec ID : avc1
Codec ID/Info : Advanced Video Coding
Duration : 2h 10mn
Bit rate mode : Variable
Bit rate : 2 214 Kbps
Maximum bit rate : 14.0 Mbps
Width : 1 280 pixels
Height : 720 pixels
Display aspect ratio : 16:9
Frame rate mode : Constant
Frame rate : 23.976 fps
Color space : YUV
Chroma subsampling : 4:2:0
Bit depth : 8 bits
Scan type : Progressive
Bits/(Pixel*Frame) : 0.100
Stream size : 2.01 GiB (83%)
Writing library : x264


Audio
ID : 2
Format : AAC
Format/Info : Advanced Audio Codec
Format version : Version 4
Format profile : LC
Format settings, SBR : No
Codec ID : 40
Duration : 2h 10mn
Bit rate mode : Variable
Bit rate : 443 Kbps
Maximum bit rate : 599 Kbps
Channel(s) : 6 channels
Channel positions : Front: L C R, Side: L R, LFE
Sampling rate : 48.0 KHz
Stream size : 415 MiB (17%)


Plot:
After trying to rescue a man on the subway tracks, two teens wake up in a room dominated by a mysterious black sphere that sends them to hunt down and kill aliens hiding on Earth.
 
http://www.postimg.com/29000/28311.jpg 
http://www.postimg.com/29000/28316.jpg 
http://www.postimg.com/29000/28313.jpg 
http://www.postimg.com/29000/28314.jpg
